<?xml version="1.0" encoding="UTF-8"?>
<svg xmlns="http://www.w3.org/2000/svg" viewBox="0 0 100 100" width="100" height="100" role="img" aria-label="Cartoon sun">
  <!-- Original artwork for Countries of Earth favicon; transparent outside the sun. -->
  <g transform="translate(50 50)">
    <g fill="#FFB300" stroke="#E65100" stroke-width="1.25" stroke-linejoin="round">
      <g transform="rotate(0)"><rect x="-3.5" y="-46" width="7" height="17" rx="3.5"/></g>
      <g transform="rotate(30)"><rect x="-3.5" y="-46" width="7" height="17" rx="3.5"/></g>
      <g transform="rotate(60)"><rect x="-3.5" y="-46" width="7" height="17" rx="3.5"/></g>
      <g transform="rotate(90)"><rect x="-3.5" y="-46" width="7" height="17" rx="3.5"/></g>
      <g transform="rotate(120)"><rect x="-3.5" y="-46" width="7" height="17" rx="3.5"/></g>
      <g transform="rotate(150)"><rect x="-3.5" y="-46" width="7" height="17" rx="3.5"/></g>
      <g transform="rotate(180)"><rect x="-3.5" y="-46" width="7" height="17" rx="3.5"/></g>
      <g transform="rotate(210)"><rect x="-3.5" y="-46" width="7" height="17" rx="3.5"/></g>
      <g transform="rotate(240)"><rect x="-3.5" y="-46" width="7" height="17" rx="3.5"/></g>
      <g transform="rotate(270)"><rect x="-3.5" y="-46" width="7" height="17" rx="3.5"/></g>
      <g transform="rotate(300)"><rect x="-3.5" y="-46" width="7" height="17" rx="3.5"/></g>
      <g transform="rotate(330)"><rect x="-3.5" y="-46" width="7" height="17" rx="3.5"/></g>
    </g>
    <circle r="21" fill="#FFEB3B" stroke="#F9A825" stroke-width="2"/>
    <circle r="14" fill="#FFF59D" opacity="0.85"/>
  </g>
</svg>
